<svg width="143" height="143" xmlns="http://www.w3.org/2000/svg" xmlns:xlink="http://www.w3.org/1999/xlink" overflow="hidden"><defs><clipPath id="clip0"><rect x="856" y="130" width="143" height="143"/></clipPath><clipPath id="clip1"><rect x="856" y="131" width="142" height="142"/></clipPath><clipPath id="clip2"><rect x="856" y="131" width="142" height="142"/></clipPath><clipPath id="clip3"><rect x="856" y="131" width="142" height="142"/></clipPath></defs><g clip-path="url(#clip0)" transform="translate(-856 -130)"><path d="M866 166.23C866 153.4 876.4 143 889.229 143L964.771 143C977.6 143 988 153.4 988 166.23L988 237.77C988 250.6 977.6 261 964.771 261L889.229 261C876.4 261 866 250.6 866 237.77Z" stroke="#F5F5F5" stroke-width="8" stroke-miterlimit="8" fill="#03396C" fill-rule="evenodd"/><g clip-path="url(#clip1)"><g clip-path="url(#clip2)"><g clip-path="url(#clip3)"><path d="M906.857 217.592 898.63 219.118 890.401 217.592 889.311 225.889 885.317 233.241 892.87 236.843 898.63 242.908 904.388 236.843 911.942 233.241 907.948 225.889ZM898.63 236.337C894.496 236.337 891.145 232.986 891.145 228.853 891.145 224.719 894.496 221.368 898.63 221.368 902.763 221.368 906.114 224.719 906.114 228.853 906.115 232.986 902.765 236.336 898.633 236.337 898.632 236.337 898.631 236.337 898.63 236.337Z" fill="#F5F5F5"/><path d="M911.559 172.593 913.85 164.83 905.971 162.95 899.289 158.365 895.068 165.278 888.648 170.217 893.918 176.368 896.631 183.996 904.11 180.889 912.208 180.666ZM902.15 178.805C898.147 178.805 894.902 175.56 894.902 171.557 894.902 167.554 898.147 164.309 902.15 164.309 906.153 164.309 909.398 167.554 909.398 171.557 909.395 175.558 906.151 178.801 902.15 178.801Z" fill="#F5F5F5"/><path d="M961.408 193.748 957.156 186.819 950.461 191.43 942.558 193.334 944.874 201.123 944.243 209.227 952.369 209.431 959.882 212.538 962.589 204.871 967.863 198.69ZM954.387 207.346C950.372 207.346 947.117 204.091 947.117 200.076 947.117 196.06 950.372 192.805 954.387 192.805 958.402 192.805 961.657 196.06 961.657 200.076 961.657 200.076 961.657 200.077 961.657 200.077 961.657 204.091 958.403 207.346 954.388 207.346 954.388 207.346 954.387 207.346 954.387 207.346Z" fill="#F5F5F5"/><path d="M949.106 177.654C943.84 177.662 938.691 179.204 934.288 182.092 934.295 181.846 934.314 181.602 934.314 181.352 934.342 166.239 922.114 153.965 907.001 153.937 891.888 153.909 879.613 166.138 879.585 181.251 879.572 188.755 882.64 195.936 888.073 201.113 876.101 210.315 873.855 227.48 883.057 239.452 892.26 251.424 909.425 253.669 921.397 244.467 927.17 240.029 930.935 233.471 931.856 226.248 936.722 230.234 942.822 232.405 949.112 232.388 964.225 232.388 976.477 220.137 976.477 205.023 976.477 189.91 964.225 177.659 949.112 177.659ZM882.544 181.352C882.544 167.873 893.471 156.946 906.95 156.946 920.429 156.946 931.356 167.873 931.356 181.352 931.352 182.401 931.282 183.448 931.146 184.488 926.878 188.209 923.863 193.158 922.514 198.657 921.805 199.24 921.064 199.783 920.295 200.284 911.441 194.108 899.77 193.76 890.564 199.397 885.461 194.785 882.547 188.23 882.544 181.352ZM904.731 247.175C891.252 247.175 880.325 236.248 880.325 222.769 880.325 209.29 891.252 198.363 904.731 198.363 918.21 198.363 929.137 209.29 929.137 222.769 929.122 236.242 918.204 247.16 904.731 247.175ZM949.106 229.425C942.737 229.438 936.62 226.94 932.081 222.473 932.01 215.66 929.386 209.121 924.729 204.148 925.208 190.677 936.516 180.145 949.987 180.624 963.458 181.102 973.99 192.411 973.511 205.881 973.044 219.02 962.254 229.428 949.106 229.421Z" fill="#F5F5F5"/></g></g></g></g></svg>