<svg width="170" height="166" xmlns="http://www.w3.org/2000/svg" xmlns:xlink="http://www.w3.org/1999/xlink" overflow="hidden"><defs><clipPath id="clip0"><rect x="594" y="117" width="170" height="166"/></clipPath><clipPath id="clip1"><rect x="609" y="131" width="142" height="142"/></clipPath><clipPath id="clip2"><rect x="609" y="131" width="142" height="142"/></clipPath><clipPath id="clip3"><rect x="609" y="131" width="142" height="142"/></clipPath></defs><g clip-path="url(#clip0)" transform="translate(-594 -117)"><path d="M619 166.23C619 153.4 629.4 143 642.229 143L717.771 143C730.6 143 741 153.4 741 166.23L741 237.77C741 250.6 730.6 261 717.771 261L642.229 261C629.4 261 619 250.6 619 237.77Z" stroke="#F5F5F5" stroke-width="8" stroke-miterlimit="8" fill="#03396C" fill-rule="evenodd"/><g clip-path="url(#clip1)"><g clip-path="url(#clip2)"><g clip-path="url(#clip3)"><path d="M659.857 217.592 651.63 219.118 643.401 217.592 642.311 225.889 638.317 233.241 645.87 236.843 651.63 242.908 657.388 236.843 664.942 233.241 660.948 225.889ZM651.63 236.337C647.496 236.337 644.145 232.986 644.145 228.853 644.145 224.719 647.496 221.368 651.63 221.368 655.763 221.368 659.114 224.719 659.114 228.853 659.115 232.986 655.765 236.336 651.633 236.337 651.632 236.337 651.631 236.337 651.63 236.337Z" fill="#F5F5F5"/><path d="M664.559 172.593 666.85 164.83 658.971 162.95 652.289 158.365 648.068 165.278 641.648 170.217 646.918 176.368 649.631 183.996 657.11 180.889 665.208 180.666ZM655.15 178.805C651.147 178.805 647.902 175.56 647.902 171.557 647.902 167.554 651.147 164.309 655.15 164.309 659.153 164.309 662.398 167.554 662.398 171.557 662.395 175.558 659.151 178.801 655.15 178.801Z" fill="#F5F5F5"/><path d="M714.408 193.748 710.156 186.819 703.461 191.43 695.558 193.334 697.874 201.123 697.243 209.227 705.369 209.431 712.882 212.538 715.589 204.871 720.863 198.69ZM707.387 207.346C703.372 207.346 700.117 204.091 700.117 200.076 700.117 196.06 703.372 192.805 707.387 192.805 711.402 192.805 714.657 196.06 714.657 200.076 714.657 200.076 714.657 200.077 714.657 200.077 714.657 204.091 711.403 207.346 707.388 207.346 707.388 207.346 707.387 207.346 707.387 207.346Z" fill="#F5F5F5"/><path d="M702.106 177.654C696.84 177.662 691.691 179.204 687.288 182.092 687.295 181.846 687.314 181.602 687.314 181.352 687.342 166.239 675.114 153.965 660.001 153.937 644.888 153.909 632.613 166.138 632.585 181.251 632.572 188.755 635.64 195.936 641.073 201.113 629.101 210.315 626.855 227.48 636.057 239.452 645.26 251.424 662.425 253.669 674.397 244.467 680.17 240.029 683.935 233.471 684.856 226.248 689.722 230.234 695.822 232.405 702.112 232.388 717.225 232.388 729.477 220.137 729.477 205.023 729.477 189.91 717.225 177.659 702.112 177.659ZM635.544 181.352C635.544 167.873 646.471 156.946 659.95 156.946 673.429 156.946 684.356 167.873 684.356 181.352 684.352 182.401 684.282 183.448 684.146 184.488 679.878 188.209 676.863 193.158 675.514 198.657 674.805 199.24 674.064 199.783 673.295 200.284 664.441 194.108 652.77 193.76 643.564 199.397 638.461 194.785 635.547 188.23 635.544 181.352ZM657.731 247.175C644.252 247.175 633.325 236.248 633.325 222.769 633.325 209.29 644.252 198.363 657.731 198.363 671.21 198.363 682.137 209.29 682.137 222.769 682.122 236.242 671.204 247.16 657.731 247.175ZM702.106 229.425C695.737 229.438 689.62 226.94 685.081 222.473 685.01 215.66 682.386 209.121 677.729 204.148 678.208 190.677 689.516 180.145 702.987 180.624 716.458 181.102 726.99 192.411 726.511 205.881 726.044 219.02 715.254 229.428 702.106 229.421Z" fill="#F5F5F5"/></g></g></g><path d="M0 0 0.000104987 24.4484" stroke="#F5F5F5" stroke-width="8" stroke-miterlimit="8" fill="none" fill-rule="evenodd" transform="matrix(1 0 0 -1 640 146.448)"/><path d="M0 0 0.000104987 24.1164" stroke="#F5F5F5" stroke-width="8" stroke-miterlimit="8" fill="none" fill-rule="evenodd" transform="matrix(1 0 0 -1 719 146.116)"/><path d="M0 0 0.000104987 24.4484" stroke="#F5F5F5" stroke-width="8" stroke-miterlimit="8" fill="none" fill-rule="evenodd" transform="matrix(1 0 0 -1 667 146.448)"/><path d="M0 0 0.000104987 24.1164" stroke="#F5F5F5" stroke-width="8" stroke-miterlimit="8" fill="none" fill-rule="evenodd" transform="matrix(1 0 0 -1 694 146.116)"/><path d="M0 0 0.000104987 24.4484" stroke="#F5F5F5" stroke-width="8" stroke-miterlimit="8" fill="none" fill-rule="evenodd" transform="matrix(1 0 0 -1 640 281.448)"/><path d="M0 0 0.000104987 24.1164" stroke="#F5F5F5" stroke-width="8" stroke-miterlimit="8" fill="none" fill-rule="evenodd" transform="matrix(1 0 0 -1 719 281.116)"/><path d="M0 0 0.000104987 24.4484" stroke="#F5F5F5" stroke-width="8" stroke-miterlimit="8" fill="none" fill-rule="evenodd" transform="matrix(1 0 0 -1 667 281.448)"/><path d="M0 0 0.000104987 24.1164" stroke="#F5F5F5" stroke-width="8" stroke-miterlimit="8" fill="none" fill-rule="evenodd" transform="matrix(1 0 0 -1 694 281.116)"/><path d="M0 0 0.000104987 24.4484" stroke="#F5F5F5" stroke-width="8" stroke-miterlimit="8" fill="none" fill-rule="evenodd" transform="matrix(-1.83697e-16 -1 -1 1.83697e-16 623.448 241)"/><path d="M0 0 0.000104987 24.1164" stroke="#F5F5F5" stroke-width="8" stroke-miterlimit="8" fill="none" fill-rule="evenodd" transform="matrix(-1.83697e-16 -1 -1 1.83697e-16 623.116 162)"/><path d="M0 0 0.000104987 24.4484" stroke="#F5F5F5" stroke-width="8" stroke-miterlimit="8" fill="none" fill-rule="evenodd" transform="matrix(-1.83697e-16 -1 -1 1.83697e-16 623.448 214)"/><path d="M0 0 0.000104987 24.1164" stroke="#F5F5F5" stroke-width="8" stroke-miterlimit="8" fill="none" fill-rule="evenodd" transform="matrix(-1.83697e-16 -1 -1 1.83697e-16 623.116 188)"/><path d="M0 0 0.000104987 24.4484" stroke="#F5F5F5" stroke-width="8" stroke-miterlimit="8" fill="none" fill-rule="evenodd" transform="matrix(-1.83697e-16 -1 -1 1.83697e-16 763.448 241)"/><path d="M0 0 0.000104987 24.1164" stroke="#F5F5F5" stroke-width="8" stroke-miterlimit="8" fill="none" fill-rule="evenodd" transform="matrix(-1.83697e-16 -1 -1 1.83697e-16 763.116 162)"/><path d="M0 0 0.000104987 24.4484" stroke="#F5F5F5" stroke-width="8" stroke-miterlimit="8" fill="none" fill-rule="evenodd" transform="matrix(-1.83697e-16 -1 -1 1.83697e-16 763.448 214)"/><path d="M0 0 0.000104987 24.1164" stroke="#F5F5F5" stroke-width="8" stroke-miterlimit="8" fill="none" fill-rule="evenodd" transform="matrix(-1.83697e-16 -1 -1 1.83697e-16 763.116 188)"/></g></svg>